<svg width="138" height="26" viewBox="0 0 138 26" fill="none" xmlns="http://www.w3.org/2000/svg">
<path d="M4.841 9.391L3.125 25H0.32L3.125 0.745L12.365 17.476L21.605 0.745L24.41 25H21.605L19.889 9.391L12.365 22.855L4.841 9.391ZM28.1908 3.55C28.1908 3.044 28.3668 2.615 28.7188 2.263C29.0928 1.911 29.5218 1.735 30.0058 1.735C30.5118 1.735 30.9408 1.911 31.2928 2.263C31.6448 2.615 31.8208 3.044 31.8208 3.55C31.8208 4.034 31.6448 4.463 31.2928 4.837C30.9408 5.189 30.5118 5.365 30.0058 5.365C29.5218 5.365 29.0928 5.189 28.7188 4.837C28.3668 4.463 28.1908 4.034 28.1908 3.55ZM28.6858 9.82H31.3258V25H28.6858V9.82ZM46.4981 15.76C46.4981 14.506 46.2231 13.56 45.6731 12.922C45.1231 12.284 44.3201 11.965 43.2641 11.965C42.4941 11.965 41.8121 12.13 41.2181 12.46C40.6461 12.768 40.1951 13.208 39.8651 13.78C39.5571 14.352 39.4031 15.012 39.4031 15.76V25H36.7631V9.82H39.4031V12.196C39.9091 11.272 40.5361 10.59 41.2841 10.15C42.0541 9.71 42.9341 9.49 43.9241 9.49C45.5301 9.49 46.7951 10.029 47.7191 11.107C48.6651 12.163 49.1381 13.604 49.1381 15.43V25H46.4981V15.76ZM54.101 3.55C54.101 3.044 54.277 2.615 54.629 2.263C55.003 1.911 55.432 1.735 55.916 1.735C56.422 1.735 56.851 1.911 57.203 2.263C57.555 2.615 57.731 3.044 57.731 3.55C57.731 4.034 57.555 4.463 57.203 4.837C56.851 5.189 56.422 5.365 55.916 5.365C55.432 5.365 55.003 5.189 54.629 4.837C54.277 4.463 54.101 4.034 54.101 3.55ZM54.596 9.82H57.236V25H54.596V9.82ZM63.6962 18.004C64.2242 18.928 64.7742 19.742 65.3462 20.446C65.9402 21.15 66.6002 21.7 67.3262 22.096C68.0522 22.492 68.8772 22.69 69.8012 22.69C71.0332 22.69 72.0232 22.349 72.7712 21.667C73.5192 20.985 73.8932 20.116 73.8932 19.06C73.8932 18.026 73.6512 17.201 73.1672 16.585C72.6832 15.969 72.0452 15.474 71.2532 15.1C70.4832 14.704 69.6582 14.352 68.7782 14.044C68.2062 13.846 67.5682 13.593 66.8642 13.285C66.1602 12.955 65.4892 12.548 64.8512 12.064C64.2132 11.558 63.6852 10.942 63.2672 10.216C62.8712 9.49 62.6732 8.599 62.6732 7.543C62.6732 6.399 62.9592 5.376 63.5312 4.474C64.1032 3.572 64.8952 2.868 65.9072 2.362C66.9192 1.834 68.0742 1.57 69.3722 1.57C70.6262 1.57 71.7152 1.812 72.6392 2.296C73.5852 2.758 74.3882 3.363 75.0482 4.111C75.7082 4.837 76.2252 5.607 76.5992 6.421L74.1902 7.807C73.9042 7.235 73.5412 6.674 73.1012 6.124C72.6612 5.574 72.1222 5.123 71.4842 4.771C70.8682 4.419 70.1092 4.243 69.2072 4.243C67.9532 4.243 67.0402 4.551 66.4682 5.167C65.8962 5.761 65.6102 6.432 65.6102 7.18C65.6102 7.818 65.7752 8.412 66.1052 8.962C66.4352 9.49 66.9852 9.996 67.7552 10.48C68.5472 10.942 69.6142 11.404 70.9562 11.866C71.5722 12.086 72.2212 12.372 72.9032 12.724C73.5852 13.076 74.2122 13.527 74.7842 14.077C75.3782 14.605 75.8622 15.254 76.2362 16.024C76.6102 16.772 76.7972 17.674 76.7972 18.73C76.7972 19.742 76.5992 20.655 76.2032 21.469C75.8292 22.283 75.3012 22.976 74.6192 23.548C73.9592 24.12 73.2002 24.56 72.3422 24.868C71.5062 25.176 70.6262 25.33 69.7022 25.33C68.4482 25.33 67.2822 25.066 66.2042 24.538C65.1482 23.988 64.2132 23.273 63.3992 22.393C62.6072 21.491 61.9582 20.534 61.4522 19.522L63.6962 18.004ZM78.4423 9.82H86.0323V12.295H78.4423V9.82ZM80.9173 4.54H83.5573V25H80.9173V4.54ZM87.3601 17.41C87.3601 15.87 87.7011 14.506 88.3831 13.318C89.0871 12.13 90.0331 11.195 91.2211 10.513C92.4091 9.831 93.7401 9.49 95.2141 9.49C96.7101 9.49 98.0411 9.831 99.2071 10.513C100.395 11.195 101.33 12.13 102.012 13.318C102.716 14.506 103.068 15.87 103.068 17.41C103.068 18.928 102.716 20.292 102.012 21.502C101.33 22.69 100.395 23.625 99.2071 24.307C98.0411 24.989 96.7101 25.33 95.2141 25.33C93.7401 25.33 92.4091 24.989 91.2211 24.307C90.0331 23.625 89.0871 22.69 88.3831 21.502C87.7011 20.292 87.3601 18.928 87.3601 17.41ZM90.0331 17.41C90.0331 18.466 90.2531 19.401 90.6931 20.215C91.1551 21.029 91.7711 21.678 92.5411 22.162C93.3331 22.624 94.2241 22.855 95.2141 22.855C96.2041 22.855 97.0841 22.624 97.8541 22.162C98.6461 21.678 99.2621 21.029 99.7021 20.215C100.164 19.401 100.395 18.466 100.395 17.41C100.395 16.354 100.164 15.419 99.7021 14.605C99.2621 13.769 98.6461 13.12 97.8541 12.658C97.0841 12.196 96.2041 11.965 95.2141 11.965C94.2241 11.965 93.3331 12.196 92.5411 12.658C91.7711 13.12 91.1551 13.769 90.6931 14.605C90.2531 15.419 90.0331 16.354 90.0331 17.41ZM109.335 9.82V25H106.695V9.82H109.335ZM113.922 12.724C113.57 12.46 113.251 12.273 112.965 12.163C112.679 12.031 112.316 11.965 111.876 11.965C111.216 11.965 110.699 12.13 110.325 12.46C109.951 12.79 109.687 13.241 109.533 13.813C109.401 14.385 109.335 15.034 109.335 15.76H108.147C108.147 14.55 108.356 13.483 108.774 12.559C109.214 11.613 109.775 10.865 110.457 10.315C111.139 9.765 111.832 9.49 112.536 9.49C113.086 9.49 113.592 9.567 114.054 9.721C114.538 9.853 114.978 10.128 115.374 10.546L113.922 12.724ZM123.397 25.33C121.989 25.33 120.735 25 119.635 24.34C118.557 23.658 117.71 22.723 117.094 21.535C116.5 20.347 116.203 18.972 116.203 17.41C116.203 15.826 116.511 14.44 117.127 13.252C117.765 12.064 118.645 11.14 119.767 10.48C120.911 9.82 122.231 9.49 123.727 9.49C125.223 9.49 126.499 9.809 127.555 10.447C128.633 11.063 129.458 11.954 130.03 13.12C130.602 14.286 130.888 15.672 130.888 17.278C130.888 17.432 130.877 17.597 130.855 17.773C130.855 17.927 130.855 18.026 130.855 18.07H117.886V15.826H128.776L127.72 17.344C127.786 17.234 127.852 17.069 127.918 16.849C127.984 16.607 128.017 16.409 128.017 16.255C128.017 15.353 127.83 14.572 127.456 13.912C127.104 13.252 126.609 12.735 125.971 12.361C125.333 11.987 124.585 11.8 123.727 11.8C122.715 11.8 121.846 12.02 121.12 12.46C120.416 12.878 119.866 13.494 119.47 14.308C119.096 15.1 118.898 16.079 118.876 17.245C118.876 18.433 119.063 19.445 119.437 20.281C119.811 21.117 120.361 21.755 121.087 22.195C121.813 22.635 122.693 22.855 123.727 22.855C124.761 22.855 125.674 22.635 126.466 22.195C127.258 21.733 127.929 21.04 128.479 20.116L130.624 21.469C129.832 22.745 128.831 23.713 127.621 24.373C126.433 25.011 125.025 25.33 123.397 25.33Z" fill="#272727"/>
<path d="M133.523 23.68C133.523 23.174 133.699 22.745 134.051 22.393C134.425 22.041 134.854 21.865 135.338 21.865C135.844 21.865 136.273 22.041 136.625 22.393C136.977 22.745 137.153 23.174 137.153 23.68C137.153 24.164 136.977 24.593 136.625 24.967C136.273 25.319 135.844 25.495 135.338 25.495C134.854 25.495 134.425 25.319 134.051 24.967C133.699 24.593 133.523 24.164 133.523 23.68Z" fill="#72AEC8"/>
</svg>
